<?xml version="1.0" encoding="UTF-8" standalone="no"?><!DOCTYPE svg PUBLIC "-//W3C//DTD SVG 1.1//EN" "http://www.w3.org/Graphics/SVG/1.1/DTD/svg11.dtd"><svg width="100%" height="100%" viewBox="0 0 41 41" version="1.1" xmlns="http://www.w3.org/2000/svg" xmlns:xlink="http://www.w3.org/1999/xlink" xml:space="preserve" xmlns:serif="http://www.serif.com/" style="fill-rule:evenodd;clip-rule:evenodd;stroke-linejoin:round;stroke-miterlimit:2;"><g><path d="M30.63,40.449l-20.831,0c-5.406,0 -9.799,-4.375 -9.799,-9.804l0,-20.841c0,-5.409 4.373,-9.804 9.799,-9.804l20.851,0c5.407,0 9.799,4.375 9.799,9.804l0,20.861c-0.019,5.409 -4.412,9.784 -9.819,9.784Z" style="fill:#1c468e;fill-rule:nonzero;"/><path d="M33.87,19.588l-5.188,0l0,-3.142c0,-1.133 0.915,-2.068 2.068,-2.068l3.12,0l0,-6.602l-3.657,0c-4.492,0 -8.13,3.639 -8.13,8.133l0,3.679l-3.22,0l0,5.588l3.22,0l0,15.273l6.599,0l0,-15.273l5.188,0l0,-5.588Z" style="fill:#fff;fill-rule:nonzero;"/></g></svg>