<?xml version="1.0" encoding="UTF-8" standalone="no"?><!DOCTYPE svg PUBLIC "-//W3C//DTD SVG 1.1//EN" "http://www.w3.org/Graphics/SVG/1.1/DTD/svg11.dtd"><svg width="100%" height="100%" viewBox="0 0 98 98" version="1.1" xmlns="http://www.w3.org/2000/svg" xmlns:xlink="http://www.w3.org/1999/xlink" xml:space="preserve" xmlns:serif="http://www.serif.com/" style="fill-rule:evenodd;clip-rule:evenodd;stroke-linejoin:round;stroke-miterlimit:2;"><g><path d="M0.402,24.451l0,20.622l4.054,0l0,-8.349l5.835,8.024l5.823,-8.024l0,8.349l4.055,0l0,-20.622l-9.878,13.536l-9.889,-13.536Z" style="fill:#fff;fill-rule:nonzero;"/><path d="M22.674,24.878l0,20.22l12.168,0l0,-4.023l-8.113,0l0,-4.063l6.084,0l0,-4.035l-6.084,0l0,-4.064l8.113,0l0,-4.035l-12.168,0Z" style="fill:#fff;fill-rule:nonzero;"/><path d="M36.608,45.073l4.055,0l0,-8.911l5.798,8.911l4.957,0l-4.694,-7.299c1.146,-0.45 1.707,-0.871 2.416,-1.862c0.851,-1.2 1.276,-2.479 1.276,-3.837l0,-0.525c0,-2.229 -0.724,-3.347 -1.952,-4.573c-1.219,-1.202 -3.036,-2.049 -5.284,-2.049l-6.584,0l0.012,20.145Zm6.961,-10.561l-1.353,0l0,-0.012l-1.565,0l0,-5.562l2.279,0c0.978,0 1.978,0.289 2.505,0.8c0.534,0.558 0.801,1.204 0.801,1.937c0,1.536 -1.189,2.837 -2.667,2.837Z" style="fill:#fff;fill-rule:nonzero;"/><path d="M53.159,24.928l0,20.145l4.043,0l0,-8.448l5.884,8.448l4.933,0l-6.936,-9.91l5.972,-10.235l-4.683,0l-5.17,8.91l0,-8.91l-4.043,0Z" style="fill:#fff;fill-rule:nonzero;"/><path d="M69.773,24.928l0,20.145l12.167,0l0,-4.023l-8.112,0l0,-16.122l-4.055,0Z" style="fill:#fff;fill-rule:nonzero;"/><path d="M83.695,24.878l0,20.22l12.167,0l0,-4.023l-8.112,0l0,-4.063l6.084,0l0,-4.035l-6.084,0l0,-4.064l8.112,0l0,-4.035l-12.167,0Z" style="fill:#fff;fill-rule:nonzero;"/><path d="M10.025,54.451l0,10.961c0,0.624 -0.091,1.216 -0.274,1.777c-0.201,0.584 -0.474,1.084 -0.82,1.5c-0.346,0.449 -0.739,0.789 -1.179,1.021c-0.447,0.232 -0.909,0.348 -1.387,0.348c-0.503,0 -0.968,-0.116 -1.396,-0.348c-0.44,-0.224 -0.836,-0.564 -1.189,-1.021c-0.364,-0.472 -0.632,-0.972 -0.801,-1.5c-0.183,-0.561 -0.274,-1.153 -0.274,-1.777l0,-0.408l0,-3.494l0,-7.059l-1.896,0l0,10.973c0,0.984 0.132,1.889 0.396,2.713c0.271,0.833 0.679,1.593 1.226,2.281c0.529,0.697 1.129,1.221 1.802,1.573c0.648,0.336 1.362,0.504 2.141,0.504c0.768,0 1.475,-0.172 2.123,-0.516c0.629,-0.32 1.229,-0.836 1.801,-1.549l0,-0.012c0.541,-0.688 0.95,-1.448 1.227,-2.281c0.264,-0.824 0.396,-1.729 0.396,-2.713l0,-3.914l0,-7.059l-1.896,0Z" style="fill:#fff;fill-rule:nonzero;"/><path d="M13.807,54.271l0,18.08l1.878,0l0,-10.781l0,-1.369l9.159,12.426l0,-18.212l-1.877,0l0,12.113l-9.16,-12.257Z" style="fill:#fff;fill-rule:nonzero;"/><rect x="26.731" y="54.451" width="1.877" height="17.852" style="fill:#fff;fill-rule:nonzero;"/><path d="M41.861,54.451l-1.981,0l-4.009,12.294l-4,-12.294l-0.976,0l-0.967,0l5.952,18.008l5.981,-18.008Z" style="fill:#fff;fill-rule:nonzero;"/><path d="M43.181,54.415l0,17.936l7.981,0l0,-2.377l-5.519,0l-0.584,0l0,-0.756l0,-3.902l0,-0.744l4.575,0l0,-2.378l-3.991,0l-0.584,0l0,-0.756l0,-3.902l0,-0.744l6.103,0l0,-2.377l-7.981,0Z" style="fill:#fff;fill-rule:nonzero;"/><path d="M52.492,72.303l1.886,0l0,-6.255l2.076,0l3.197,6.255l2.34,0l-2.962,-5.847l-0.387,-0.768l0.66,-0.336c0.371,-0.184 0.661,-0.376 0.868,-0.576c0.22,-0.2 0.453,-0.517 0.698,-0.949c0.289,-0.536 0.503,-1.052 0.642,-1.549c0.144,-0.52 0.216,-1.088 0.216,-1.704l0,-0.505c0,-0.816 -0.1,-1.516 -0.301,-2.101c-0.189,-0.56 -0.522,-1.148 -1,-1.764c-0.466,-0.561 -0.994,-0.989 -1.585,-1.285c-0.623,-0.312 -1.283,-0.468 -1.981,-0.468l-4.377,0l0.01,17.852Zm3.641,-8.644l-0.472,0l-0.707,-0.012l-0.585,0l0,-0.744l0,-5.343l0,-0.756l2.301,0c0.46,0 0.887,0.084 1.283,0.252c0.422,0.176 0.761,0.424 1.019,0.744l0,0.012c0.283,0.385 0.481,0.745 0.594,1.081c0.12,0.392 0.18,0.824 0.18,1.296c0,0.521 -0.06,0.965 -0.18,1.333c-0.119,0.408 -0.32,0.792 -0.603,1.153c-0.277,0.352 -0.544,0.604 -0.802,0.756c-0.289,0.16 -0.626,0.24 -1.009,0.24l-0.01,-0.012l-1.009,0Z" style="fill:#fff;fill-rule:nonzero;"/><path d="M66.859,70.063c-0.463,0 -0.906,-0.17 -1.33,-0.511c-0.424,-0.341 -0.723,-0.781 -0.899,-1.318l-1.882,0.51c0.178,0.732 0.478,1.385 0.899,1.96c0.421,0.575 0.912,1.019 1.475,1.332c0.562,0.312 1.144,0.468 1.747,0.468c0.546,0 1.08,-0.134 1.601,-0.403c0.52,-0.269 0.977,-0.631 1.371,-1.085c0.393,-0.454 0.71,-1.003 0.95,-1.646c0.239,-0.643 0.359,-1.317 0.359,-2.021c0,-0.471 -0.061,-0.922 -0.183,-1.355c-0.122,-0.432 -0.286,-0.818 -0.491,-1.157c-0.205,-0.34 -0.449,-0.656 -0.733,-0.949c-0.283,-0.292 -0.579,-0.544 -0.887,-0.753c-0.308,-0.21 -0.633,-0.392 -0.976,-0.547c-0.103,-0.046 -0.254,-0.109 -0.452,-0.189c-0.198,-0.079 -0.369,-0.148 -0.514,-0.206c-0.145,-0.059 -0.317,-0.139 -0.516,-0.24c-0.198,-0.101 -0.369,-0.201 -0.513,-0.3c-0.143,-0.099 -0.292,-0.224 -0.445,-0.375c-0.153,-0.151 -0.278,-0.31 -0.374,-0.477c-0.096,-0.167 -0.175,-0.365 -0.237,-0.593c-0.062,-0.229 -0.093,-0.474 -0.093,-0.736c0,-0.363 0.056,-0.71 0.168,-1.041c0.112,-0.331 0.268,-0.624 0.468,-0.878c0.197,-0.251 0.426,-0.447 0.686,-0.589c0.26,-0.142 0.534,-0.214 0.821,-0.214c0.575,0 1.076,0.268 1.502,0.803c0.236,0.307 0.404,0.645 0.506,1.014l1.872,-0.504c-0.217,-0.989 -0.631,-1.819 -1.241,-2.491c-0.364,-0.401 -0.772,-0.711 -1.227,-0.932c-0.454,-0.22 -0.931,-0.33 -1.432,-0.33c-0.552,0 -1.075,0.132 -1.57,0.397c-0.495,0.265 -0.93,0.636 -1.304,1.113c-0.373,0.471 -0.663,1.02 -0.871,1.646c-0.207,0.627 -0.311,1.291 -0.311,1.993c0,0.519 0.068,1.018 0.204,1.496c0.136,0.478 0.328,0.908 0.577,1.289c0.365,0.56 0.789,1.013 1.273,1.358c0.483,0.345 1.035,0.628 1.656,0.847c0.277,0.096 0.531,0.197 0.76,0.302c0.23,0.106 0.472,0.243 0.726,0.413c0.253,0.171 0.466,0.353 0.638,0.549c0.172,0.195 0.313,0.432 0.423,0.711c0.111,0.279 0.163,0.579 0.157,0.899c0,0.383 -0.068,0.742 -0.206,1.079c-0.137,0.337 -0.318,0.62 -0.542,0.849c-0.224,0.23 -0.476,0.416 -0.755,0.558c-0.279,0.142 -0.564,0.227 -0.855,0.254Z" style="fill:#fff;fill-rule:nonzero;"/><rect x="72.471" y="54.451" width="1.877" height="17.852" style="fill:#fff;fill-rule:nonzero;"/><path d="M78.819,54.451l-3.151,0l0,2.365l3.745,0l0,15.487l1.877,0l0,-14.743l0,-0.744l3.745,0l0,-2.365l-3.15,0l-3.066,0Z" style="fill:#fff;fill-rule:nonzero;"/><path d="M85.79,54.451l4.235,9.952l0.076,0.361l0,7.539l1.858,0l0,-7.539l0.066,-0.361l4.245,-9.952l-2.123,0l-2.603,6.315l-0.519,1.26l-0.519,-1.26l-2.603,-6.315l-2.113,0Z" style="fill:#fff;fill-rule:nonzero;"/><rect x="-0.204" y="49.142" width="97.214" height="1.086" style="fill:#fff;"/></g></svg>