<?xml version="1.0" encoding="UTF-8" standalone="no"?><!DOCTYPE svg PUBLIC "-//W3C//DTD SVG 1.1//EN" "http://www.w3.org/Graphics/SVG/1.1/DTD/svg11.dtd"><svg width="100%" height="100%" viewBox="0 0 41 41" version="1.1" xmlns="http://www.w3.org/2000/svg" xmlns:xlink="http://www.w3.org/1999/xlink" xml:space="preserve" xmlns:serif="http://www.serif.com/" style="fill-rule:evenodd;clip-rule:evenodd;stroke-linejoin:round;stroke-miterlimit:2;"><g><path d="M30.65,40.449l-20.851,0c-5.406,0 -9.799,-4.375 -9.799,-9.804l0,-20.841c0,-5.409 4.373,-9.804 9.799,-9.804l20.851,0c5.407,0 9.799,4.375 9.799,9.804l0,20.861c0,5.409 -4.392,9.784 -9.799,9.784Z" style="fill:#55adee;fill-rule:nonzero;"/><path d="M31.942,10.401c0,0 -2.007,1.233 -3.2,1.233c0,0 -0.894,-1.512 -3.498,-1.611c-2.604,-0.1 -4.035,1.631 -4.711,2.625c-0.676,0.994 -0.676,3.241 -0.457,3.659c0,0 -6.401,0.08 -10.595,-5.31c0,0 -2.246,3.978 1.61,6.722c0,0 -1.252,0.04 -2.345,-0.537c0,0 -0.02,3.938 4.055,5.031c0,0 -1.233,0.438 -2.227,0.12c0,0 0.716,3.122 4.632,3.52c0,0 -2.306,2.505 -7.394,2.108c0,0 7.155,5.508 15.484,0.238c7.414,-4.693 6.857,-13.125 6.857,-13.125c0,0 1.948,-1.253 2.505,-2.585c0,0 -1.451,0.537 -2.843,0.736c0.02,-0.02 2.187,-1.77 2.127,-2.824Z" style="fill:#fff;fill-rule:nonzero;"/></g></svg>