<?xml version="1.0" encoding="UTF-8" standalone="no"?><!DOCTYPE svg PUBLIC "-//W3C//DTD SVG 1.1//EN" "http://www.w3.org/Graphics/SVG/1.1/DTD/svg11.dtd"><svg width="100%" height="100%" viewBox="0 0 41 41" version="1.1" xmlns="http://www.w3.org/2000/svg" xmlns:xlink="http://www.w3.org/1999/xlink" xml:space="preserve" xmlns:serif="http://www.serif.com/" style="fill-rule:evenodd;clip-rule:evenodd;stroke-linejoin:round;stroke-miterlimit:2;"><g><path d="M30.63,40.449l-20.831,0c-5.406,0 -9.799,-4.375 -9.799,-9.804l0,-20.841c0,-5.409 4.373,-9.804 9.799,-9.804l20.851,0c5.407,0 9.799,4.375 9.799,9.804l0,20.861c-0.019,5.409 -4.412,9.784 -9.819,9.784Z" style="fill:#f00;fill-rule:nonzero;"/><path d="M32.896,13.702c-0.417,-1.969 -2.286,-2.685 -3.816,-2.804c-1.471,-0.119 -6.142,-0.338 -8.845,-0.338c-2.704,0 -7.375,0.219 -8.846,0.338c-1.55,0.119 -3.398,0.835 -3.816,2.804c-0.397,1.929 -0.477,3.957 -0.477,6.543c0,2.585 0.08,4.593 0.477,6.542c0.418,1.969 2.286,2.685 3.816,2.804c1.471,0.12 6.142,0.338 8.846,0.338c2.703,0 7.374,-0.218 8.845,-0.338c1.55,-0.119 3.399,-0.835 3.816,-2.804c0.398,-1.929 0.477,-3.957 0.477,-6.542c0,-2.586 -0.079,-4.614 -0.477,-6.543Z" style="fill:#fff;fill-rule:nonzero;"/><path d="M16.518,24.381l7.394,-4.136l-7.394,-4.137l0,8.273Z" style="fill:#f00;fill-rule:nonzero;"/></g></svg>